<svg width="42" height="47" viewBox="0 0 42 47" fill="none" xmlns="http://www.w3.org/2000/svg">
<g opacity="0.95">
<path d="M38.7421 9.4049L23.6492 0.6761C22.7641 0.231497 21.7874 0 20.7971 0C19.8068 0 18.8302 0.231497 17.945 0.6761L2.85206 9.4049C2.02362 9.94536 1.33387 10.6733 0.838384 11.53C0.342958 12.3866 0.0557622 13.3479 0 14.3362V31.7937C0.0547224 32.7841 0.341398 33.7477 0.836824 34.6067C1.33225 35.4657 2.02258 36.196 2.85206 36.7387L17.945 45.4676C18.8302 45.9122 19.8068 46.1436 20.7971 46.1436C21.7874 46.1436 22.7641 45.9122 23.6492 45.4676L38.7421 36.7387C39.5716 36.196 40.2619 35.4657 40.7574 34.6067C41.2528 33.7477 41.5395 32.7841 41.5942 31.7937V14.3362C41.5384 13.3479 41.2512 12.3866 40.7558 11.53C40.2603 10.6733 39.5706 9.94536 38.7421 9.4049ZM36.8043 29.7857C36.76 30.5465 36.5382 31.2863 36.1566 31.9458C35.7751 32.6053 35.2444 33.166 34.6072 33.5832L22.9805 40.3039C22.3013 40.6473 21.5511 40.8262 20.7903 40.8262C20.0294 40.8262 19.2792 40.6473 18.6001 40.3039L6.98698 33.5832C6.34974 33.166 5.81909 32.6053 5.4376 31.9458C5.05603 31.2863 4.83422 30.5465 4.7899 29.7857V16.3579C4.83422 15.597 5.05603 14.8572 5.4376 14.1978C5.81909 13.5383 6.34974 12.9775 6.98698 12.5603L18.5864 5.83963C19.2655 5.49628 20.0157 5.31736 20.7766 5.31736C21.5375 5.31736 22.2877 5.49628 22.9669 5.83963L34.5936 12.5603C35.2333 12.976 35.7667 13.5361 36.1506 14.1957C36.5346 14.8552 36.7585 15.5959 36.8043 16.3579V29.7857Z" fill="url(#paint0_linear_2_59)"/>
<path d="M13.3 30.18C12.196 30.18 11.254 29.988 10.474 29.604C9.706 29.22 9.106 28.668 8.674 27.948C8.254 27.216 8.026 26.346 7.99 25.338C7.978 24.822 7.972 24.27 7.972 23.682C7.972 23.082 7.978 22.518 7.99 21.99C8.026 20.994 8.254 20.142 8.674 19.434C9.106 18.726 9.712 18.18 10.492 17.796C11.284 17.412 12.22 17.22 13.3 17.22C14.176 17.22 14.944 17.34 15.604 17.58C16.264 17.808 16.81 18.108 17.242 18.48C17.686 18.84 18.016 19.23 18.232 19.65C18.46 20.07 18.58 20.46 18.592 20.82C18.604 20.928 18.574 21.018 18.502 21.09C18.43 21.162 18.334 21.198 18.214 21.198H16.36C16.24 21.198 16.15 21.174 16.09 21.126C16.03 21.078 15.976 21.006 15.928 20.91C15.832 20.658 15.682 20.412 15.478 20.172C15.274 19.92 14.998 19.71 14.65 19.542C14.302 19.374 13.852 19.29 13.3 19.29C12.484 19.29 11.83 19.506 11.338 19.938C10.858 20.37 10.6 21.084 10.564 22.08C10.528 23.124 10.528 24.18 10.564 25.248C10.6 26.268 10.864 27 11.356 27.444C11.86 27.888 12.52 28.11 13.336 28.11C13.876 28.11 14.356 28.014 14.776 27.822C15.208 27.63 15.544 27.33 15.784 26.922C16.036 26.514 16.162 25.992 16.162 25.356V24.798H13.966C13.846 24.798 13.744 24.756 13.66 24.672C13.576 24.588 13.534 24.48 13.534 24.348V23.394C13.534 23.262 13.576 23.154 13.66 23.07C13.744 22.986 13.846 22.944 13.966 22.944H18.268C18.4 22.944 18.502 22.986 18.574 23.07C18.658 23.154 18.7 23.262 18.7 23.394V25.284C18.7 26.292 18.478 27.162 18.034 27.894C17.602 28.626 16.978 29.19 16.162 29.586C15.358 29.982 14.404 30.18 13.3 30.18ZM22.9545 30C22.7745 30 22.6305 29.952 22.5225 29.856C22.4265 29.748 22.3605 29.616 22.3245 29.46L20.1825 17.922C20.1825 17.886 20.1765 17.856 20.1645 17.832C20.1645 17.808 20.1645 17.79 20.1645 17.778C20.1645 17.67 20.2005 17.58 20.2725 17.508C20.3565 17.436 20.4465 17.4 20.5425 17.4H22.1265C22.4265 17.4 22.5945 17.52 22.6305 17.76L24.1245 25.914L25.7445 20.64C25.7805 20.544 25.8405 20.448 25.9245 20.352C26.0205 20.244 26.1585 20.19 26.3385 20.19H27.3105C27.5025 20.19 27.6405 20.244 27.7245 20.352C27.8085 20.448 27.8625 20.544 27.8865 20.64L29.5245 25.896L31.0185 17.76C31.0545 17.52 31.2225 17.4 31.5225 17.4H33.1065C33.2025 17.4 33.2865 17.436 33.3585 17.508C33.4305 17.58 33.4665 17.67 33.4665 17.778C33.4665 17.79 33.4665 17.808 33.4665 17.832C33.4665 17.856 33.4605 17.886 33.4485 17.922L31.3065 29.46C31.2825 29.616 31.2165 29.748 31.1085 29.856C31.0005 29.952 30.8565 30 30.6765 30H29.4705C29.2905 30 29.1465 29.952 29.0385 29.856C28.9425 29.76 28.8765 29.658 28.8405 29.55L26.8245 23.538L24.8085 29.55C24.7605 29.658 24.6885 29.76 24.5925 29.856C24.4965 29.952 24.3525 30 24.1605 30H22.9545Z" fill="#F35F2F"/>
<path d="M13.3 30.18C12.196 30.18 11.254 29.988 10.474 29.604C9.706 29.22 9.106 28.668 8.674 27.948C8.254 27.216 8.026 26.346 7.99 25.338C7.978 24.822 7.972 24.27 7.972 23.682C7.972 23.082 7.978 22.518 7.99 21.99C8.026 20.994 8.254 20.142 8.674 19.434C9.106 18.726 9.712 18.18 10.492 17.796C11.284 17.412 12.22 17.22 13.3 17.22C14.176 17.22 14.944 17.34 15.604 17.58C16.264 17.808 16.81 18.108 17.242 18.48C17.686 18.84 18.016 19.23 18.232 19.65C18.46 20.07 18.58 20.46 18.592 20.82C18.604 20.928 18.574 21.018 18.502 21.09C18.43 21.162 18.334 21.198 18.214 21.198H16.36C16.24 21.198 16.15 21.174 16.09 21.126C16.03 21.078 15.976 21.006 15.928 20.91C15.832 20.658 15.682 20.412 15.478 20.172C15.274 19.92 14.998 19.71 14.65 19.542C14.302 19.374 13.852 19.29 13.3 19.29C12.484 19.29 11.83 19.506 11.338 19.938C10.858 20.37 10.6 21.084 10.564 22.08C10.528 23.124 10.528 24.18 10.564 25.248C10.6 26.268 10.864 27 11.356 27.444C11.86 27.888 12.52 28.11 13.336 28.11C13.876 28.11 14.356 28.014 14.776 27.822C15.208 27.63 15.544 27.33 15.784 26.922C16.036 26.514 16.162 25.992 16.162 25.356V24.798H13.966C13.846 24.798 13.744 24.756 13.66 24.672C13.576 24.588 13.534 24.48 13.534 24.348V23.394C13.534 23.262 13.576 23.154 13.66 23.07C13.744 22.986 13.846 22.944 13.966 22.944H18.268C18.4 22.944 18.502 22.986 18.574 23.07C18.658 23.154 18.7 23.262 18.7 23.394V25.284C18.7 26.292 18.478 27.162 18.034 27.894C17.602 28.626 16.978 29.19 16.162 29.586C15.358 29.982 14.404 30.18 13.3 30.18ZM22.9545 30C22.7745 30 22.6305 29.952 22.5225 29.856C22.4265 29.748 22.3605 29.616 22.3245 29.46L20.1825 17.922C20.1825 17.886 20.1765 17.856 20.1645 17.832C20.1645 17.808 20.1645 17.79 20.1645 17.778C20.1645 17.67 20.2005 17.58 20.2725 17.508C20.3565 17.436 20.4465 17.4 20.5425 17.4H22.1265C22.4265 17.4 22.5945 17.52 22.6305 17.76L24.1245 25.914L25.7445 20.64C25.7805 20.544 25.8405 20.448 25.9245 20.352C26.0205 20.244 26.1585 20.19 26.3385 20.19H27.3105C27.5025 20.19 27.6405 20.244 27.7245 20.352C27.8085 20.448 27.8625 20.544 27.8865 20.64L29.5245 25.896L31.0185 17.76C31.0545 17.52 31.2225 17.4 31.5225 17.4H33.1065C33.2025 17.4 33.2865 17.436 33.3585 17.508C33.4305 17.58 33.4665 17.67 33.4665 17.778C33.4665 17.79 33.4665 17.808 33.4665 17.832C33.4665 17.856 33.4605 17.886 33.4485 17.922L31.3065 29.46C31.2825 29.616 31.2165 29.748 31.1085 29.856C31.0005 29.952 30.8565 30 30.6765 30H29.4705C29.2905 30 29.1465 29.952 29.0385 29.856C28.9425 29.76 28.8765 29.658 28.8405 29.55L26.8245 23.538L24.8085 29.55C24.7605 29.658 24.6885 29.76 24.5925 29.856C24.4965 29.952 24.3525 30 24.1605 30H22.9545Z" fill="#F35F2F" fill-opacity="0.75"/>
</g>
<defs>
<linearGradient id="paint0_linear_2_59" x1="25.3255" y1="54.1299" x2="28.838" y2="-10.9297" gradientUnits="userSpaceOnUse">
<stop stop-color="#F35F2F"/>
<stop offset="1" stop-color="#F35F2F" stop-opacity="0.75"/>
</linearGradient>
</defs>
</svg>
